<svg id="Laag_1" data-name="Laag 1" xmlns="http://www.w3.org/2000/svg" viewBox="0 0 57.36 43.28"><defs><style>.cls-1{fill:#fff;}</style></defs><title>account</title><path class="cls-1" d="M22.24,21.55a11.88,11.88,0,0,1-2-18.11,11.89,11.89,0,0,1,17.06.34A11.8,11.8,0,0,1,35,21.55a2.11,2.11,0,0,0,.5.25c7.37,1.58,11.86,6.94,12.08,14.47.05,1.58,0,3.16,0,4.73s-.69,2.26-2.22,2.27H11.89c-1.53,0-2.2-.66-2.17-2.13.06-2.75-.21-5.58.37-8.22,1.34-6.05,5.35-9.68,11.39-11.06.16,0,.32-.06.47-.11S22.08,21.66,22.24,21.55Z"/></svg>