<svg id="Laag_1" data-name="Laag 1" xmlns="http://www.w3.org/2000/svg" viewBox="0 0 57.36 43.28"><defs><style>.cls-1{fill:#fff;}</style></defs><title>lijst</title><path class="cls-1" d="M25.55,41.6c-7.44,0-14.88,0-22.33,0a3.33,3.33,0,0,1-2.11-.45,3.11,3.11,0,0,1-1-2.26c.07-.66.86-1.36,1.5-1.79a3.43,3.43,0,0,1,1.75-.19h45a2.43,2.43,0,0,1,2.57,2.36,2.4,2.4,0,0,1-2.59,2.34c-3,0-6.09,0-9.14,0Z"/><path class="cls-1" d="M25.37,13.77c-7.54,0-15.08,0-22.62,0C1.4,13.78.38,13.36.06,12a2.2,2.2,0,0,1,2-2.75,12,12,0,0,1,1.34,0h44.8c1.69.05,2.73.95,2.7,2.34s-1.08,2.25-2.78,2.26Z"/><path class="cls-1" d="M25.56,27.65H3.38a9.24,9.24,0,0,1-1.49-.06A2.07,2.07,0,0,1,0,25.42,2.14,2.14,0,0,1,1.9,23.09a5.23,5.23,0,0,1,1.19,0h44.8a5.15,5.15,0,0,1,1,0,2.16,2.16,0,0,1,2,2.27,2.1,2.1,0,0,1-2,2.25,10.55,10.55,0,0,1-1.49,0Z"/><path class="cls-1" d="M45.44,3.16c.54-.48,1.09-.94,1.6-1.43a6,6,0,0,1,9.89,2.54,6.5,6.5,0,0,1-1.43,6.91c-3.08,3.35-6.21,6.66-9.33,10a.74.74,0,0,1-1.27,0c-3.13-3.37-6.29-6.71-9.39-10.11a6.76,6.76,0,0,1-.18-8.86,5.92,5.92,0,0,1,9-.18C44.76,2.44,45.15,2.86,45.44,3.16Zm.11,16.7c3-3.23,6-6.42,9-9.63A5.19,5.19,0,0,0,55.84,5.4a4.76,4.76,0,0,0-3.52-3.89,4.45,4.45,0,0,0-4.78,1.62c-.43.51-.9,1-1.36,1.46S45.4,5,45,4.58c-.64-.66-1.24-1.37-1.92-2A4.24,4.24,0,0,0,39,1.44c-3.72.9-4.87,5.41-2.87,8.2a14.59,14.59,0,0,0,1.1,1.26Z"/><path class="cls-1" d="M45.55,19.86l-8.34-9a14.59,14.59,0,0,1-1.1-1.26c-2-2.79-.85-7.3,2.87-8.2A4.24,4.24,0,0,1,43,2.58c.68.63,1.28,1.34,1.92,2,.45.46.78.47,1.23,0s.93-.95,1.36-1.46a4.45,4.45,0,0,1,4.78-1.62A4.76,4.76,0,0,1,55.84,5.4a5.19,5.19,0,0,1-1.32,4.83C51.55,13.44,48.56,16.63,45.55,19.86Z"/></svg>